<svg xmlns="http://www.w3.org/2000/svg" viewBox="22.45 45.77 120 120"><defs><style>      .cls-1{fill:#ad1764;}      .cls-2 {        fill: url(#linear-gradient);      }    </style><linearGradient id="linear-gradient" x1="84.85" y1="94.85" x2="72.9" y2="170.33" gradientUnits="userSpaceOnUse"><stop offset=".16" stop-color="#ad1764"></stop><stop offset=".36" stop-color="#790f7f"></stop><stop offset=".56" stop-color="#4e0896"></stop><stop offset=".74" stop-color="#2f03a7"></stop><stop offset=".89" stop-color="#1c01b1"></stop><stop offset="1" stop-color="#1600b5"></stop></linearGradient></defs><path class="cls-2" d="M82.46,162.25c21.88-.13,43.34-18.2,43.34-40.08v-.95c0-7.93-6.43-14.36-14.36-14.36h0c-7.93,0-14.36,6.43-14.36,14.36v1.15c0,5.95-.78,34.71-14.53,34.71-13.75,0-15.19-28.34-15.19-34.48v-23.38c0-7.93-6.43-14.36-14.36-14.36h0c-7.93,0-14.36,6.43-14.36,14.36v23.38c0,21.94,21.84,39.77,43.8,39.64Z"></path><circle class="cls-1" cx="112.69" cy="86.5" r="13.54"></circle><circle class="cls-1" cx="53.29" cy="62.78" r="13.54"></circle></svg>